<?xml version="1.0" encoding="UTF-8"?>
<svg id="svg1" width="40.968mm" height="13.08mm" version="1.1" viewBox="0 0 40.968 13.08" xmlns="http://www.w3.org/2000/svg">
 <g id="layer1" transform="translate(-17.337 -14.569)">
  <g id="g1" transform="translate(3.3308 .79226)">
   <g id="g2" transform="matrix(.55861 0 0 .55861 9.5539 8.5665)" stroke-width=".47364">
    <path id="text11" d="m12.069 17.315v-4.3596h3.8375q0.54822 0 1.0442 0.10442 0.52211 0.07832 0.9137 0.31327 0.39158 0.23495 0.62653 0.65264t0.23495 1.0703q0 1.1748-0.70485 1.6969t-1.8013 0.52211zm-4.0986-7.5445v18.639h9.0325q1.2531 0 2.4278-0.31327 1.2009-0.31327 2.1146-0.96591 0.9398-0.65264 1.488-1.6708 0.54822-1.0442 0.54822-2.4539 0-1.7491-0.86148-2.976-0.83538-1.2531-2.5583-1.7491 1.2531-0.60043 1.8796-1.5402 0.65264-0.9398 0.65264-2.3495 0-1.3053-0.4438-2.1929-0.41769-0.88759-1.2009-1.4097-0.78317-0.54822-1.8796-0.78317-1.0964-0.23495-2.4278-0.23495zm4.0986 15.455v-5.1167h4.4641q1.3314 0 2.1407 0.62653 0.80927 0.60043 0.80927 2.0362 0 0.73096-0.26106 1.2009-0.23495 0.4699-0.65264 0.75706-0.41769 0.26106-0.96591 0.39158-0.54822 0.10442-1.1486 0.10442zm17.7-12.4v-3.0544h-3.707v3.0544zm-3.707 2.0884v13.497h3.707v-13.497zm20.493 11.382 0.41769 2.1146h2.6106v-10.077h-7.8317v3.0544h4.1247q-0.18274 1.9579-1.3053 3.0021-1.0964 1.0181-3.1327 1.0181-1.3836 0-2.3495-0.52211-0.96591-0.54822-1.5663-1.4358-0.60043-0.88759-0.88759-1.984-0.26106-1.1225-0.26106-2.2973 0-1.227 0.26106-2.3756 0.28716-1.1486 0.88759-2.0362 0.60043-0.9137 1.5663-1.4358 0.96591-0.54822 2.3495-0.54822 1.488 0 2.5322 0.78317t1.4097 2.3495h3.9158q-0.15663-1.5924-0.86148-2.8194-0.70485-1.227-1.8013-2.0623-1.0703-0.83538-2.4278-1.2531-1.3314-0.4438-2.7672-0.4438-2.1407 0-3.8636 0.75706-1.6969 0.75706-2.8716 2.0884-1.1748 1.3314-1.8013 3.1327-0.62653 1.7752-0.62653 3.8636 0 2.0362 0.62653 3.8114 0.62654 1.7491 1.8013 3.0544t2.8716 2.0623q1.723 0.73096 3.8636 0.73096 1.3575 0 2.6889-0.54822 1.3314-0.57432 2.4278-1.984zm19.814 0 0.41769 2.1146h2.6106v-10.077h-7.8317v3.0544h4.1247q-0.18274 1.9579-1.3053 3.0021-1.0964 1.0181-3.1327 1.0181-1.3836 0-2.3495-0.52211-0.96591-0.54822-1.5663-1.4358-0.60043-0.88759-0.88759-1.984-0.26106-1.1225-0.26106-2.2973 0-1.227 0.26106-2.3756 0.28716-1.1486 0.88759-2.0362 0.60043-0.9137 1.5663-1.4358 0.96591-0.54822 2.3495-0.54822 1.488 0 2.5322 0.78317t1.4097 2.3495h3.9158q-0.15663-1.5924-0.86148-2.8194-0.70485-1.227-1.8013-2.0623-1.0703-0.83538-2.4278-1.2531-1.3314-0.4438-2.7672-0.4438-2.1407 0-3.8636 0.75706-1.6969 0.75706-2.8716 2.0884-1.1748 1.3314-1.8013 3.1327-0.62653 1.7752-0.62653 3.8636 0 2.0362 0.62653 3.8114 0.62654 1.7491 1.8013 3.0544t2.8716 2.0623q1.723 0.73096 3.8636 0.73096 1.3575 0 2.6889-0.54822 1.3314-0.57432 2.4278-1.984z" fill="#288de4" aria-label="BiGG"/>
    <path id="text12" d="m72.485 19.245-2.7933 13.497h3.6809l1.2531-5.9782q0.18274-0.86148 0.4699-1.6447 0.31327-0.80927 0.80927-1.4358 0.52211-0.62654 1.2531-0.99201 0.75706-0.36548 1.8274-0.36548 0.39158 0 0.78317 0.07832t0.78317 0.15663l0.75706-3.6026q-0.57432-0.07832-1.1486-0.07832-1.488 0-2.7672 0.73096-1.2531 0.70485-1.8796 2.1146l-0.05221-0.05221 0.54822-2.4278z" fill="#ff883f" aria-label="r"/>
   </g>
  </g>
 </g>
</svg>